<svg width="161" height="66" viewBox="0 0 161 66" fill="none" xmlns="http://www.w3.org/2000/svg">
<g clip-path="url(#clip0_4115_402)">
<path d="M-0.00683594 48.187H5.44564V17.1138H-0.00683594V48.187ZM28.4524 48.7197C33.2072 48.7178 37.8022 47.0012 41.3965 43.8843V30.8272H28.1865V35.6214H36.1214V41.3921C33.9364 42.9523 31.3131 43.7773 28.6297 43.748C22.2907 43.748 18.0794 39.0426 18.0794 32.6504V32.5616C18.0794 26.6165 22.4237 21.6416 28.1421 21.6416C31.3553 21.5598 34.4732 22.7386 36.8306 24.9265L40.2883 20.7982C37.0966 18.0904 33.7719 16.5811 28.3638 16.5811C26.2513 16.5549 24.1549 16.953 22.1986 17.7519C20.2424 18.5507 18.4658 19.7341 16.974 21.2321C15.4822 22.7301 14.3054 24.5124 13.513 26.4736C12.7207 28.4347 12.329 30.5351 12.361 32.6504V32.7392C12.361 41.7948 18.7444 48.7197 28.4524 48.7197ZM59.3498 48.6309C65.8662 48.6309 70.4321 45.1685 70.4321 39.3565V39.2677C70.4321 34.1153 67.063 31.7658 60.5023 30.1677C54.5179 28.7472 53.0994 27.6819 53.0994 25.2848V25.196C53.0994 23.1541 54.9612 21.5116 58.1529 21.5116C60.99 21.5116 63.7827 22.6214 66.5754 24.7077L69.5043 20.5794C66.3355 17.9735 62.3412 16.587 58.2416 16.6699C52.0798 16.6699 47.6469 20.3543 47.6469 25.6811V25.7699C47.6469 31.4963 51.3674 33.4494 57.9756 35.0443C63.7384 36.376 64.9796 37.5746 64.9796 39.7941V39.8828C64.9796 42.1911 62.8518 43.7892 59.4828 43.7892C55.6705 43.7892 52.6561 42.3243 49.6861 39.7465L46.4057 43.6592C49.9471 46.8801 54.5658 48.6541 59.3498 48.6309Z" fill="#203A5B"/>
<path d="M95.1328 19.6505H96.6907V10.7725H95.1328V19.6505ZM99.0591 19.6505H100.592V13.3344L105.48 19.6505H106.785V10.7725H105.253V16.911L100.503 10.7725H99.0591V19.6505ZM111.978 19.7139H113.371L117.044 10.7725H115.36L112.7 17.5959L110.027 10.7725H108.305L111.978 19.7139ZM118.564 19.6505H125.201V18.2554H120.122V15.8837H124.567V14.4759H120.122V12.1676H125.137V10.7725H118.567L118.564 19.6505ZM130.153 19.7774C132.015 19.7774 133.319 18.7881 133.319 17.1266V17.1013C133.319 15.63 132.357 14.961 130.482 14.5013C128.772 14.0954 128.367 13.7878 128.367 13.1061V13.0808C128.367 12.4974 128.899 12.0281 129.811 12.0281C130.691 12.0607 131.536 12.3815 132.217 12.9413L133.053 11.7617C132.148 11.0177 131.007 10.6219 129.836 10.6456C128.076 10.6456 126.809 11.6983 126.809 13.2203V13.2456C126.809 14.8817 127.873 15.4398 129.76 15.8964C131.407 16.2769 131.761 16.6193 131.761 17.2534V17.2788C131.761 17.9383 131.153 18.3949 130.191 18.3949C129.145 18.3812 128.144 17.9684 127.392 17.2408L126.454 18.3569C127.466 19.2771 128.786 19.7839 130.153 19.7774ZM137.144 19.6505H138.702V12.2183H141.526V10.7725H134.323V12.2183H137.147L137.144 19.6505ZM146.925 19.8027C147.534 19.8166 148.139 19.7077 148.705 19.4826C149.271 19.2576 149.786 18.9209 150.219 18.4926C150.652 18.0643 150.995 17.5531 151.227 16.9895C151.459 16.4258 151.576 15.8212 151.57 15.2115V15.1861C151.578 14.5789 151.464 13.9762 151.234 13.4144C151.003 12.8525 150.662 12.343 150.23 11.9166C149.799 11.4901 149.285 11.1555 148.721 10.9327C148.157 10.7099 147.553 10.6037 146.947 10.6203C146.338 10.606 145.733 10.7145 145.166 10.9394C144.6 11.1643 144.085 11.5009 143.651 11.9292C143.218 12.3576 142.874 12.8689 142.642 13.4328C142.41 13.9967 142.293 14.6016 142.299 15.2115V15.2369C142.291 15.8444 142.405 16.4473 142.636 17.0094C142.866 17.5715 143.208 18.0811 143.64 18.5076C144.072 18.9341 144.586 19.2687 145.15 19.4913C145.715 19.7138 146.318 19.8198 146.925 19.8027ZM146.95 18.3569C146.544 18.3559 146.142 18.2729 145.768 18.1129C145.394 17.9529 145.056 17.7192 144.775 17.4256C144.493 17.1321 144.273 16.7848 144.129 16.4044C143.984 16.024 143.917 15.6183 143.933 15.2115V15.1861C143.915 14.7821 143.979 14.3787 144.122 14.0003C144.265 13.622 144.482 13.2765 144.762 12.9848C145.042 12.6931 145.378 12.4613 145.749 12.3034C146.121 12.1455 146.521 12.0648 146.925 12.0661C147.331 12.0684 147.732 12.1523 148.104 12.3129C148.477 12.4734 148.814 12.7073 149.094 13.0008C149.375 13.2942 149.594 13.6411 149.738 14.0208C149.882 14.4006 149.948 14.8055 149.933 15.2115V15.2369C149.951 15.6403 149.886 16.0432 149.744 16.4212C149.602 16.7991 149.385 17.1443 149.106 17.4359C148.827 17.7275 148.492 17.9594 148.121 18.1177C147.75 18.276 147.35 18.3574 146.947 18.3569H146.95ZM153.457 19.6505H155.015V16.5591H156.966L159.144 19.6505H160.993L158.599 16.2895C159.208 16.158 159.751 15.8169 160.135 15.3257C160.519 14.8344 160.718 14.2241 160.699 13.6008V13.5754C160.717 12.8648 160.453 12.176 159.964 11.6603C159.261 11.0396 158.342 10.7207 157.406 10.7725H153.457V19.6505ZM155.015 15.1734V12.193H157.282C158.435 12.193 159.119 12.713 159.119 13.6642V13.6895C159.119 14.59 158.406 15.1734 157.298 15.1734H155.015Z" fill="#707070"/>
<path d="M98.9952 36.449C100.354 36.4482 101.667 35.9575 102.694 35.0666V31.341H98.9192V32.7107H101.186V34.3595C100.563 34.8043 99.8145 35.0396 99.049 35.0317C98.6378 35.0401 98.2294 34.9626 97.8498 34.8042C97.4701 34.6457 97.1276 34.4099 96.844 34.1116C96.5604 33.8133 96.342 33.4591 96.2027 33.0716C96.0633 32.6841 96.0061 32.2718 96.0346 31.861V31.8356C96.017 31.4414 96.0775 31.0475 96.2125 30.6768C96.3476 30.3061 96.5545 29.9658 96.8214 29.6755C97.0884 29.3852 97.4101 29.1506 97.7679 28.9853C98.1258 28.8201 98.5127 28.7273 98.9065 28.7124C99.8246 28.6891 100.715 29.0258 101.389 29.651L102.377 28.4715C101.443 27.6404 100.221 27.208 98.973 27.2666C98.3692 27.2587 97.7699 27.3721 97.2106 27.6001C96.6513 27.8282 96.1433 28.1662 95.7168 28.5943C95.2902 29.0223 94.9537 29.5317 94.7271 30.0922C94.5005 30.6528 94.3885 31.2531 94.3976 31.8578V31.8832C94.3748 32.4922 94.4783 33.0993 94.7018 33.6661C94.9253 34.233 95.2637 34.7472 95.6959 35.1764C96.128 35.6055 96.6443 35.9402 97.2122 36.1593C97.7801 36.3783 98.3873 36.477 98.9952 36.449ZM104.72 36.2968H106.278V33.2054H108.228L110.407 36.2968H112.253L109.862 32.9359C110.471 32.805 111.016 32.4642 111.4 31.9728C111.784 31.4815 111.984 30.8708 111.965 30.2471V30.2217C111.983 29.5111 111.719 28.8223 111.23 28.3066C110.527 27.6859 109.608 27.367 108.672 27.4188H104.72V36.2968ZM106.278 31.8198V28.8393H108.545C109.697 28.8393 110.381 29.3593 110.381 30.3105V30.3359C110.381 31.2363 109.669 31.8198 108.561 31.8198H106.278ZM118.111 36.449C118.719 36.4629 119.324 36.354 119.89 36.1289C120.456 35.9039 120.971 35.5672 121.404 35.1389C121.838 34.7106 122.181 34.1994 122.413 33.6358C122.645 33.0721 122.761 32.4675 122.756 31.8578V31.8324C122.764 31.2252 122.649 30.6225 122.419 30.0607C122.189 29.4988 121.848 28.9894 121.416 28.5629C120.984 28.1364 120.471 27.8018 119.906 27.579C119.342 27.3562 118.739 27.25 118.133 27.2666C117.524 27.2523 116.918 27.3608 116.352 27.5857C115.786 27.8106 115.27 28.1472 114.837 28.5756C114.403 29.0039 114.06 29.5152 113.828 30.0791C113.595 30.643 113.479 31.2479 113.484 31.8578V31.8832C113.476 32.4907 113.591 33.0936 113.821 33.6557C114.052 34.2178 114.393 34.7274 114.825 35.1539C115.257 35.5804 115.771 35.915 116.336 36.1376C116.9 36.3601 117.504 36.4661 118.111 36.449ZM118.136 35.0032C117.729 35.0022 117.327 34.9192 116.953 34.7592C116.58 34.5992 116.242 34.3655 115.96 34.072C115.679 33.7784 115.459 33.4311 115.314 33.0507C115.17 32.6703 115.103 32.2646 115.118 31.8578V31.8324C115.101 31.4284 115.165 31.025 115.308 30.6466C115.45 30.2683 115.668 29.9228 115.948 29.6311C116.227 29.3394 116.563 29.1076 116.935 28.9497C117.307 28.7918 117.707 28.7111 118.111 28.7124C118.516 28.7147 118.917 28.7986 119.29 28.9592C119.663 29.1197 119.999 29.3536 120.28 29.6471C120.56 29.9405 120.779 30.2874 120.923 30.6671C121.067 31.0469 121.134 31.4518 121.119 31.8578V31.8832C121.136 32.2866 121.072 32.6895 120.93 33.0675C120.788 33.4454 120.571 33.7906 120.292 34.0822C120.012 34.3738 119.677 34.6057 119.306 34.764C118.935 34.9223 118.536 35.0037 118.133 35.0032H118.136ZM128.278 36.4363C130.595 36.4363 132.09 35.1046 132.09 32.4539V27.4188H130.532V32.53C130.532 34.1661 129.684 34.9873 128.303 34.9873C126.91 34.9873 126.061 34.1154 126.061 32.4634V27.4188H124.503V32.53C124.503 35.1078 125.973 36.4363 128.278 36.4363ZM134.23 36.2968H135.788V33.4432H137.549C139.499 33.4432 141.095 32.4032 141.095 30.4119V30.3866C141.095 28.5983 139.803 27.4188 137.726 27.4188H134.23V36.2968ZM135.788 32.0354V28.8393H137.599C138.765 28.8393 139.512 29.3846 139.512 30.4246V30.45C139.512 31.3759 138.777 32.0354 137.599 32.0354H135.788Z" fill="#707070"/>
<path d="M97.8936 53.0699C99.7554 53.0699 101.06 52.0807 101.06 50.4192V50.3939C101.06 48.9226 100.097 48.2536 98.2229 47.7939C96.5131 47.388 96.1078 47.0804 96.1078 46.3987V46.3734C96.1078 45.7899 96.6397 45.3207 97.5517 45.3207C98.432 45.3533 99.2773 45.6741 99.9581 46.2339L100.794 45.0543C99.8887 44.3103 98.7479 43.9145 97.577 43.9382C95.8165 43.9382 94.5499 44.9909 94.5499 46.5129V46.5382C94.5499 48.1743 95.6138 48.7324 97.501 49.189C99.1475 49.5695 99.5021 49.9119 99.5021 50.546V50.5714C99.5021 51.2309 98.8942 51.6875 97.9316 51.6875C96.8859 51.6738 95.8847 51.261 95.1326 50.5334L94.1953 51.6495C95.2072 52.5697 96.5268 53.0765 97.8936 53.0699ZM102.896 52.9431H109.533V51.548H104.454V49.1763H108.9V47.7685H104.454V45.4602H109.47V44.0651H102.9L102.896 52.9431ZM111.382 52.9431H112.94V49.8517H114.891L117.069 52.9431H118.918L116.528 49.5821C117.137 49.4513 117.681 49.1105 118.065 48.6191C118.449 48.1278 118.649 47.5171 118.63 46.8934V46.868C118.648 46.1574 118.384 45.4686 117.896 44.9529C117.192 44.3322 116.273 44.0133 115.337 44.0651H111.382V52.9431ZM112.94 48.466V45.4856H115.207C116.36 45.4856 117.044 46.0056 117.044 46.9568V46.9821C117.044 47.8826 116.331 48.466 115.223 48.466H112.94ZM123.199 53.0065H124.592L128.265 44.0651H126.581L123.921 50.8885L121.249 44.0651H119.526L123.199 53.0065ZM129.874 52.9431H131.432V44.0651H129.874V52.9431ZM137.916 53.0953C138.595 53.1169 139.27 52.9869 139.892 52.7149C140.514 52.4429 141.068 52.0356 141.513 51.5226L140.513 50.508C140.191 50.8646 139.798 51.1502 139.36 51.3467C138.922 51.5432 138.447 51.6463 137.967 51.6495C137.566 51.6421 137.171 51.5542 136.805 51.3908C136.439 51.2274 136.11 50.992 135.837 50.6986C135.563 50.4051 135.352 50.0596 135.215 49.6826C135.078 49.3056 135.018 48.9048 135.038 48.5041V48.4787C135.019 48.0808 135.079 47.6831 135.216 47.3091C135.353 46.9351 135.564 46.5924 135.835 46.3014C136.107 46.0104 136.434 45.7771 136.798 45.6151C137.161 45.4532 137.554 45.366 137.951 45.3587C138.419 45.3664 138.881 45.4667 139.309 45.6539C139.738 45.8411 140.126 46.1115 140.45 46.4495L141.45 45.2953C140.998 44.8346 140.454 44.4737 139.854 44.2356C139.255 43.9976 138.612 43.8876 137.967 43.9129C137.363 43.9025 136.764 44.0143 136.204 44.2417C135.645 44.469 135.137 44.8073 134.711 45.236C134.285 45.6648 133.95 46.1753 133.726 46.7369C133.502 47.2985 133.394 47.8996 133.408 48.5041V48.5295C133.393 49.1288 133.499 49.7249 133.72 50.2821C133.941 50.8394 134.271 51.3463 134.692 51.7726C135.113 52.1988 135.616 52.5357 136.17 52.763C136.724 52.9902 137.318 53.1033 137.916 53.0953ZM143.16 52.9431H149.797V51.548H144.718V49.1763H149.163V47.7685H144.718V45.4602H149.733V44.0651H143.163L143.16 52.9431ZM154.749 53.0699C156.611 53.0699 157.915 52.0807 157.915 50.4192V50.3939C157.915 48.9226 156.953 48.2536 155.078 47.7939C153.368 47.388 152.963 47.0804 152.963 46.3987V46.3734C152.963 45.7899 153.495 45.3207 154.407 45.3207C155.287 45.3533 156.132 45.6741 156.813 46.2339L157.649 45.0543C156.744 44.3103 155.603 43.9145 154.432 43.9382C152.672 43.9382 151.405 44.9909 151.405 46.5129V46.5382C151.405 48.1743 152.469 48.7324 154.356 49.189C156.003 49.5695 156.357 49.9119 156.357 50.546V50.5714C156.357 51.2309 155.749 51.6875 154.787 51.6875C153.742 51.673 152.742 51.2603 151.991 50.5334L151.051 51.6495C152.062 52.5697 153.382 53.0765 154.749 53.0699Z" fill="#707070"/>
<path d="M83.756 65.2297H82.1729V0.229736H83.756V65.2297Z" fill="#707070"/>
</g>
<defs>
<clipPath id="clip0_4115_402">
<rect width="161" height="65" fill="white" transform="translate(-0.00683594 0.229736)"/>
</clipPath>
</defs>
</svg>
