<svg width="24" height="25" viewBox="0 0 24 25" fill="none" xmlns="http://www.w3.org/2000/svg">
<path opacity="0.4" d="M21 23.1948H3C2.59 23.1948 2.25 22.8548 2.25 22.4448C2.25 22.0348 2.59 21.6948 3 21.6948H21C21.41 21.6948 21.75 22.0348 21.75 22.4448C21.75 22.8548 21.41 23.1948 21 23.1948Z" fill="white"/>
<path d="M5.59998 8.82471H4C3.45 8.82471 3 9.27471 3 9.82471V18.4447C3 18.9947 3.45 19.4447 4 19.4447H5.59998C6.14998 19.4447 6.59998 18.9947 6.59998 18.4447V9.82471C6.59998 9.26471 6.14998 8.82471 5.59998 8.82471Z" fill="white"/>
<path d="M12.8002 5.63477H11.2002C10.6502 5.63477 10.2002 6.08477 10.2002 6.63477V18.4448C10.2002 18.9948 10.6502 19.4448 11.2002 19.4448H12.8002C13.3502 19.4448 13.8002 18.9948 13.8002 18.4448V6.63477C13.8002 6.08477 13.3502 5.63477 12.8002 5.63477Z" fill="white"/>
<path d="M20.0004 2.44482H18.4004C17.8504 2.44482 17.4004 2.89482 17.4004 3.44482V18.4448C17.4004 18.9948 17.8504 19.4448 18.4004 19.4448H20.0004C20.5504 19.4448 21.0004 18.9948 21.0004 18.4448V3.44482C21.0004 2.89482 20.5504 2.44482 20.0004 2.44482Z" fill="white"/>
</svg>
