<svg width="52" height="56" viewBox="0 0 52 56" fill="none" xmlns="http://www.w3.org/2000/svg">
<path d="M9.85449 54.0711V44.1498C9.85449 43.5975 9.40678 43.1498 8.85449 43.1498H7.0159C6.22119 43.1498 5.74401 42.2675 6.179 41.6024L12.6438 31.7178C13.0435 31.1066 13.9423 31.1161 14.329 31.7355L17.667 37.0823M16.6253 54.0711V44.1498C16.6253 43.5975 17.073 43.1498 17.6253 43.1498H21.3128M39.542 54.0711V39.2958C39.542 38.7435 39.0943 38.2958 38.542 38.2958H37.1193C36.3469 38.2958 35.8661 37.4574 36.2562 36.7907L42.3248 26.4221C42.711 25.7623 43.6647 25.7623 44.0509 26.4221L50.1194 36.7907C50.5096 37.4573 50.0288 38.2958 49.2564 38.2958H47.3128C46.7605 38.2958 46.3128 38.7435 46.3128 39.2958V48.0037" stroke="#B6CBE6" stroke-width="2"/>
<path d="M1 0.0710449V53.071C1 53.6233 1.44772 54.071 2 54.071H24.4375M47.875 54.071H31.7292M24.4375 54.071V23.5205C24.4375 22.9682 23.9898 22.5205 23.4375 22.5205H22.074C21.2888 22.5205 20.8099 21.657 21.2257 20.9909L27.7283 10.5751C28.1265 9.9373 29.0598 9.95063 29.4396 10.5996L35.5357 21.0154C35.9259 21.682 35.4451 22.5205 34.6727 22.5205H32.7292C32.1769 22.5205 31.7292 22.9682 31.7292 23.5205V54.071M24.4375 54.071H31.7292" stroke="#243C5D" stroke-width="2"/>
</svg>
