<svg width="52" height="57" viewBox="0 0 52 57" fill="none" xmlns="http://www.w3.org/2000/svg">
<path d="M31.9037 29.151C30.8715 26.991 30.1489 22.995 35.5165 24.291C38.317 24.9671 38.5849 27.0701 38.2288 29.0638C38.1601 29.4483 38.294 29.8455 38.6013 30.0867L40.1616 31.311M13.8396 55.0711H6.09786M10.2268 47.511V38.331M10.2268 38.331H6.61378M10.2268 38.331H13.8396M10.2268 28.071C21.1771 28.071 20.1278 42.6244 14.4897 45.6068C14.1137 45.8057 13.8396 46.176 13.8396 46.6013V50.291C13.8396 50.8433 13.3919 51.291 12.8396 51.291H7.09786C6.54557 51.291 6.09786 50.8433 6.09786 50.291V46.9907C6.09786 46.401 5.57212 45.9503 5.01257 45.7642C0.0200549 44.1037 -2.31293 28.071 10.2268 28.071ZM25.49 28.8896L39.9372 42.4938C40.3441 42.8769 40.9861 42.8522 41.3623 42.4389L50.3721 32.5408C50.7257 32.1523 50.7185 31.5564 50.3555 31.1767L36.8441 17.04C36.6555 16.8426 36.3943 16.731 36.1212 16.731H25.7224C25.1531 16.731 24.6987 17.2056 24.7234 17.7744L25.1765 28.205C25.1878 28.4653 25.3003 28.711 25.49 28.8896Z" stroke="#243C5D" stroke-width="2"/>
<path d="M25.7098 34.5511C20.0325 32.5711 11.2592 24.2911 19.5164 12.9511C23.13 8.63112 30.8717 7.55102 37.0651 14.0311M7.64648 22.6711C8.1626 14.5711 13.1952 1.07116 29.8395 1.07104C42.2263 1.07096 47.9036 16.011 46.8713 22.131M24.1622 42.651H32.4201" stroke="#B6CBE6" stroke-width="2"/>
</svg>
