<svg width="52" height="56" viewBox="0 0 52 56" fill="none" xmlns="http://www.w3.org/2000/svg">
<path d="M25.5 48.0711C22.5 47.9044 15.3 45.6711 10.5 38.0711M11.5 16.0711C13.1667 13.0711 19.1 7.17111 29.5 7.57111M47 35.5712C47.8333 33.2378 49.2 27.4712 48 23.0712" stroke="#B6CBE6" stroke-width="2"/>
<path d="M38 5.57104H33.5C32.9477 5.57104 32.5 6.01876 32.5 6.57104V19.071C32.5 19.6233 32.9477 20.071 33.5 20.071H38M38 5.57104V20.071M38 5.57104V2.07104C38 1.51876 38.4477 1.07104 39 1.07104H43.5C44.0523 1.07104 44.5 1.51876 44.5 2.07104V9.57104M38 20.071H44.5M44.5 20.071H50C50.5523 20.071 51 19.6233 51 19.071V10.571C51 10.0188 50.5523 9.57104 50 9.57104H44.5M44.5 20.071V9.57104M6 26.071L7.79289 27.8639C8.18342 28.2545 8.81658 28.2545 9.20711 27.8639L13 24.071M37 46.071C34.6643 46.071 34.0334 44.1767 34.0013 43.1535C33.9996 43.0984 33.995 43.0441 33.9879 42.9895C33.8545 41.9664 34.2742 40.071 37 40.071C39.7258 40.071 40.1455 41.9665 40.0121 42.9895C40.005 43.0441 40.0004 43.0984 39.9987 43.1535C39.9666 44.1767 39.3357 46.071 37 46.071ZM3.5 33.071H2C1.44772 33.071 1 32.6233 1 32.071V20.571C1 20.0188 1.44772 19.571 2 19.571H17C17.5523 19.571 18 20.0188 18 20.571V32.571C18 33.1233 17.5523 33.571 17 33.571H9.3802C9.13529 33.571 8.89889 33.6609 8.71584 33.8236L6.16436 36.0916C5.51946 36.6649 4.5 36.207 4.5 35.3442V34.071C4.5 33.5188 4.05228 33.071 3.5 33.071ZM41.0207 38.071H44.7546C45.6204 38.071 46.0771 39.0965 45.4979 39.74L43.0196 42.4937C42.7139 42.8334 42.6774 43.3371 42.9309 43.7173L45.5528 47.6503C45.9768 48.2862 45.5595 49.1434 44.7975 49.202L40.5413 49.5294C40.2037 49.5554 39.9022 49.7504 39.7401 50.0476L37.9164 53.3909C37.5297 54.1 36.5053 54.0817 36.1441 53.3593L34.3028 49.6766C34.1199 49.3109 33.7328 49.0933 33.3253 49.1273L29.5887 49.4387C28.8536 49.4999 28.3075 48.7715 28.5723 48.0831L30.3562 43.4449C30.4485 43.2049 30.4448 42.9386 30.3459 42.7013L28.695 38.7391C28.3927 38.0136 29.0072 37.2389 29.7825 37.3681L33.3284 37.9591C33.7336 38.0267 34.1389 37.8395 34.3503 37.4872L36.2071 34.3926C36.5797 33.7715 37.4685 33.7403 37.8838 34.3336L40.2014 37.6445C40.3886 37.9118 40.6943 38.071 41.0207 38.071Z" stroke="#243C5D" stroke-width="2"/>
</svg>
