<svg width="52" height="57" viewBox="0 0 52 57" fill="none" xmlns="http://www.w3.org/2000/svg">
<path d="M47.4571 23.3754C48.8439 22.3971 51.4788 19.1493 50.9241 13.9841M41.91 18.0928C42.6034 17.5058 43.8515 15.8623 43.2968 13.9841M23.882 23.9623C19.0282 17.5058 14.5906 3.88844 35.6695 1.07104M27.3484 17.5058C26.1929 14.3754 26.2395 8.11452 35.6695 8.11452" stroke="#B6CBE6" stroke-width="2"/>
<path d="M33.5889 15.745L41.2161 9.87539M41.2161 9.87539V5.59762C41.2161 5.33024 41.3232 5.07399 41.5135 4.88611L44.7257 1.71369C45.0941 1.34987 45.6793 1.32742 46.0745 1.66195L50.089 5.06025C50.5374 5.43979 50.5636 6.12223 50.1456 6.53501L47.0553 9.5869C46.8682 9.77174 46.6157 9.87539 46.3527 9.87539H41.2161Z" stroke="#243C5D" stroke-width="2"/>
<path d="M41.9099 54.0711V21.4407C41.9099 20.8884 41.4621 20.4407 40.9099 20.4407H29.0421C28.4898 20.4407 28.0421 20.8884 28.0421 21.4407V30.5928C28.0421 31.1451 27.5944 31.5928 27.0421 31.5928H15.8678C15.3155 31.5928 14.8678 32.0406 14.8678 32.5928V42.332C14.8678 42.8843 14.42 43.332 13.8677 43.332H2C1.44772 43.332 1 43.7797 1 44.332V54.0711C1 54.6234 1.44771 55.0711 2 55.0711H40.9099C41.4621 55.0711 41.9099 54.6234 41.9099 54.0711Z" stroke="#243C5D" stroke-width="2"/>
</svg>
