<svg width="52" height="56" viewBox="0 0 52 56" fill="none" xmlns="http://www.w3.org/2000/svg">
<path d="M41.6253 38.8186L44.393 36.497C44.6195 36.307 44.7503 36.0265 44.7503 35.7309V16.7992M44.7503 16.7992H36.3753C35.823 16.7992 35.3753 16.3515 35.3753 15.7992V7.36231M44.7503 16.7992L35.3753 7.36231M35.3753 7.36231H22.7184C22.4833 7.36231 22.2558 7.44511 22.0757 7.59617L19.2295 9.98367M47.8753 32.5274L50.643 30.2058C50.8695 30.0157 51.0003 29.7353 51.0003 29.4396V10.5079M51.0003 10.5079H42.6253C42.073 10.5079 41.6253 10.0602 41.6253 9.50794V1.07104M51.0003 10.5079L41.6253 1.07104M41.6253 1.07104H28.9684C28.7333 1.07104 28.5058 1.15384 28.3257 1.3049L25.4795 3.69241" stroke="#B6CBE6" stroke-width="2"/>
<path d="M1 55.0711L6.16504 50.3919M6.16504 50.3919V50.3919C6.18959 50.3696 6.19406 50.3335 6.17441 50.3069C4.09476 47.4846 1.34185 40.893 6.72917 36.7216C12.1458 32.5274 16.625 35.3235 18.1875 37.2458C19.4028 38.4692 21.5208 42.0692 20.2708 46.6828C18.7083 52.4498 11.3301 53.0524 6.16504 50.3919ZM6.72917 44.5857C6.68766 42.4451 7.77539 38.0853 12.4583 37.7701M12.4583 30.9546V13.0808C12.4583 12.5285 12.906 12.0808 13.4583 12.0808H28.6042M28.6042 12.0808V21.042C28.6042 21.5943 29.0519 22.042 29.6042 22.042H37.9792M28.6042 12.0808L37.9792 22.042M37.9792 22.042V44.11C37.9792 44.6622 37.5315 45.11 36.9792 45.11H24.4375M21.3125 36.7216H32.7708M32.7708 29.9061H17.6667M17.6667 23.6148H22.875" stroke="#243C5D" stroke-width="2"/>
</svg>
