<svg width="20" height="21" viewBox="0 0 20 21" fill="none" xmlns="http://www.w3.org/2000/svg">
<path fill-rule="evenodd" clip-rule="evenodd" d="M2.45465 4.24896L7.85777 9.65443C9.03621 10.8306 10.9625 10.8316 12.142 9.65443L17.5451 4.24896C17.5995 4.19455 17.5916 4.10494 17.5284 4.06092C16.9773 3.67658 16.3068 3.44873 15.5846 3.44873H4.4152C3.69289 3.44873 3.02238 3.67662 2.47129 4.06092C2.40816 4.10494 2.40023 4.19455 2.45465 4.24896ZM1.01074 6.85314C1.01074 6.28518 1.15156 5.74854 1.39961 5.27686C1.4384 5.20307 1.53672 5.18814 1.59566 5.24709L6.93039 10.5818C8.61973 12.2736 11.379 12.2746 13.0694 10.5818L18.4041 5.24709C18.463 5.18814 18.5614 5.20307 18.6002 5.27686C18.8482 5.74854 18.989 6.28522 18.989 6.85314V13.9601C18.989 15.8387 17.4609 17.3645 15.5846 17.3645H4.4152C2.53895 17.3645 1.01074 15.8387 1.01074 13.9601V6.85314Z" fill="white"/>
</svg>
