<svg width="24" height="25" viewBox="0 0 24 25" fill="none" xmlns="http://www.w3.org/2000/svg">
<path opacity="0.4" d="M11.79 14.6167L8.52 17.8867C8.16 17.5667 7.81 17.2367 7.47 16.8967C6.44 15.8567 5.51 14.7667 4.68 13.6267C3.86 12.4867 3.2 11.3467 2.72 10.2167C2.24 9.07674 2 7.98674 2 6.94674C2 6.26674 2.12 5.61674 2.36 5.01674C2.6 4.40674 2.98 3.84674 3.51 3.34674C4.15 2.71674 4.85 2.40674 5.59 2.40674C5.87 2.40674 6.15 2.46674 6.4 2.58674C6.66 2.70674 6.89 2.88674 7.07 3.14674L9.39 6.41674C9.57 6.66674 9.7 6.89674 9.79 7.11674C9.88 7.32674 9.93 7.53674 9.93 7.72674C9.93 7.96674 9.86 8.20674 9.72 8.43674C9.59 8.66674 9.4 8.90674 9.16 9.14674L8.4 9.93674C8.29 10.0467 8.24 10.1767 8.24 10.3367C8.24 10.4167 8.25 10.4867 8.27 10.5667C8.3 10.6467 8.33 10.7067 8.35 10.7667C8.53 11.0967 8.84 11.5267 9.28 12.0467C9.73 12.5667 10.21 13.0967 10.73 13.6267C11.09 13.9767 11.44 14.3167 11.79 14.6167Z" fill="white"/>
<path d="M21.9696 18.7368C21.9696 19.0168 21.9196 19.3068 21.8196 19.5868C21.7896 19.6668 21.7596 19.7468 21.7196 19.8268C21.5496 20.1868 21.3296 20.5268 21.0396 20.8468C20.5496 21.3868 20.0096 21.7768 19.3996 22.0268C19.3896 22.0268 19.3796 22.0368 19.3696 22.0368C18.7796 22.2768 18.1396 22.4068 17.4496 22.4068C16.4296 22.4068 15.3396 22.1668 14.1896 21.6768C13.0396 21.1868 11.8896 20.5268 10.7496 19.6968C10.3596 19.4068 9.96961 19.1168 9.59961 18.8068L12.8696 15.5368C13.1496 15.7468 13.3996 15.9068 13.6096 16.0168C13.6596 16.0368 13.7196 16.0668 13.7896 16.0968C13.8696 16.1268 13.9496 16.1368 14.0396 16.1368C14.2096 16.1368 14.3396 16.0768 14.4496 15.9668L15.2096 15.2168C15.4596 14.9668 15.6996 14.7768 15.9296 14.6568C16.1596 14.5168 16.3896 14.4468 16.6396 14.4468C16.8296 14.4468 17.0296 14.4868 17.2496 14.5768C17.4696 14.6668 17.6996 14.7968 17.9496 14.9668L21.2596 17.3168C21.5196 17.4968 21.6996 17.7068 21.8096 17.9568C21.9096 18.2068 21.9696 18.4568 21.9696 18.7368Z" fill="white"/>
</svg>
