<svg width="20" height="21" viewBox="0 0 20 21" fill="none" xmlns="http://www.w3.org/2000/svg">
<path d="M18.0002 18.4063V12.5463C18.0002 9.66631 17.3802 7.46631 14.0202 7.46631C12.4002 7.46631 11.3202 8.34631 10.8802 9.18631H10.8402V7.72631H7.66016V18.4063H10.9802V13.1063C10.9802 11.7063 11.2402 10.3663 12.9602 10.3663C14.6602 10.3663 14.6802 11.9463 14.6802 13.1863V18.3863H18.0002V18.4063Z" fill="white"/>
<path d="M2.25977 7.72705H5.57977V18.4071H2.25977V7.72705Z" fill="white"/>
<path d="M3.92 2.40674C2.86 2.40674 2 3.26674 2 4.32674C2 5.38674 2.86 6.26674 3.92 6.26674C4.98 6.26674 5.84 5.38674 5.84 4.32674C5.84 3.26674 4.98 2.40674 3.92 2.40674Z" fill="white"/>
</svg>
