<svg width="24" height="25" viewBox="0 0 24 25" fill="none" xmlns="http://www.w3.org/2000/svg">
<path opacity="0.4" d="M20.6201 8.85674C19.5701 4.23674 15.5401 2.15674 12.0001 2.15674C12.0001 2.15674 12.0001 2.15674 11.9901 2.15674C8.4601 2.15674 4.4201 4.22674 3.3701 8.84674C2.2001 14.0067 5.3601 18.3767 8.2201 21.1267C9.2801 22.1467 10.6401 22.6567 12.0001 22.6567C13.3601 22.6567 14.7201 22.1467 15.7701 21.1267C18.6301 18.3767 21.7901 14.0167 20.6201 8.85674Z" fill="white"/>
<path d="M11.9996 13.8669C13.7393 13.8669 15.1496 12.4566 15.1496 10.7169C15.1496 8.9772 13.7393 7.56689 11.9996 7.56689C10.2599 7.56689 8.84961 8.9772 8.84961 10.7169C8.84961 12.4566 10.2599 13.8669 11.9996 13.8669Z" fill="white"/>
</svg>
