<svg width="24" height="25" viewBox="0 0 24 25" fill="none" xmlns="http://www.w3.org/2000/svg">
<path d="M14.5 11.1948H8.5C8.09 11.1948 7.75 10.8548 7.75 10.4448C7.75 10.0348 8.09 9.69482 8.5 9.69482H14.5C14.91 9.69482 15.25 10.0348 15.25 10.4448C15.25 10.8548 14.91 11.1948 14.5 11.1948Z" fill="white"/>
<path d="M11.5 14.1948H8.5C8.09 14.1948 7.75 13.8548 7.75 13.4448C7.75 13.0348 8.09 12.6948 8.5 12.6948H11.5C11.91 12.6948 12.25 13.0348 12.25 13.4448C12.25 13.8548 11.91 14.1948 11.5 14.1948Z" fill="white"/>
<path opacity="0.4" d="M11.5 21.4448C16.7467 21.4448 21 17.1915 21 11.9448C21 6.69812 16.7467 2.44482 11.5 2.44482C6.25329 2.44482 2 6.69812 2 11.9448C2 17.1915 6.25329 21.4448 11.5 21.4448Z" fill="white"/>
<path d="M21.2996 22.4449C21.1196 22.4449 20.9396 22.3749 20.8096 22.2449L18.9496 20.3849C18.6796 20.1149 18.6796 19.6749 18.9496 19.3949C19.2196 19.1249 19.6596 19.1249 19.9396 19.3949L21.7996 21.2549C22.0696 21.5249 22.0696 21.9649 21.7996 22.2449C21.6596 22.3749 21.4796 22.4449 21.2996 22.4449Z" fill="white"/>
</svg>
