<svg width="21" height="21" viewBox="0 0 21 21" fill="none" xmlns="http://www.w3.org/2000/svg">
<g clip-path="url(#clip0_3796_9238)">
<path d="M2.96289 6.23991C2.96289 5.79788 3.13849 5.37396 3.45105 5.0614C3.76361 4.74884 4.18753 4.57324 4.62956 4.57324H16.2962C16.7383 4.57324 17.1622 4.74884 17.4747 5.0614C17.7873 5.37396 17.9629 5.79788 17.9629 6.23991V14.5732C17.9629 15.0153 17.7873 15.4392 17.4747 15.7518C17.1622 16.0643 16.7383 16.2399 16.2962 16.2399H4.62956C4.18753 16.2399 3.76361 16.0643 3.45105 15.7518C3.13849 15.4392 2.96289 15.0153 2.96289 14.5732V6.23991Z" stroke="#52525C" stroke-width="1.5" stroke-linecap="round" stroke-linejoin="round"/>
<path d="M2.96289 6.24023L10.4629 11.2402L17.9629 6.24023" stroke="#52525C" stroke-width="1.5" stroke-linecap="round" stroke-linejoin="round"/>
</g>
<defs>
<clipPath id="clip0_3796_9238">
<rect width="20" height="20" fill="white" transform="translate(0.462891 0.406738)"/>
</clipPath>
</defs>
</svg>
