<svg width="19" height="19" viewBox="0 0 19 19" fill="none" xmlns="http://www.w3.org/2000/svg">
<path fill-rule="evenodd" clip-rule="evenodd" d="M2.32297 3.63483L7.43432 8.7484C8.54912 9.86106 10.3714 9.86202 11.4872 8.7484L16.5985 3.63483C16.65 3.58335 16.6425 3.49858 16.5828 3.45694C16.0614 3.09336 15.4271 2.87781 14.7439 2.87781H4.17764C3.49434 2.87781 2.86004 3.09339 2.33871 3.45694C2.27899 3.49858 2.27149 3.58335 2.32297 3.63483ZM0.957031 6.09838C0.957031 5.56108 1.09025 5.05342 1.3249 4.60721C1.36159 4.53741 1.45461 4.52329 1.51037 4.57906L6.55702 9.62571C8.15513 11.2261 10.7654 11.2271 12.3645 9.62571L17.4111 4.57906C17.4669 4.52329 17.5599 4.53741 17.5966 4.60721C17.8312 5.05342 17.9645 5.56112 17.9645 6.09838V12.8215C17.9645 14.5987 16.5188 16.0421 14.7439 16.0421H4.17764C2.40271 16.0421 0.957031 14.5987 0.957031 12.8215V6.09838Z" fill="white"/>
</svg>
