<svg width="16" height="16" viewBox="0 0 16 16" fill="none" xmlns="http://www.w3.org/2000/svg">
<path fill-rule="evenodd" clip-rule="evenodd" d="M2.3448 3.47202L6.31734 7.44628C7.18376 8.31104 8.60005 8.31178 9.46719 7.44628L13.4397 3.47202C13.4797 3.43202 13.4739 3.36613 13.4275 3.33377C13.0223 3.05119 12.5293 2.88367 11.9983 2.88367H3.78626C3.2552 2.88367 2.76222 3.05122 2.35704 3.33377C2.31063 3.36613 2.3048 3.43202 2.3448 3.47202ZM1.2832 5.38669C1.2832 4.9691 1.38674 4.57455 1.56911 4.22776C1.59763 4.17351 1.66992 4.16253 1.71325 4.20587L5.6355 8.12812C6.87755 9.37198 8.90626 9.37269 10.1491 8.12812L14.0713 4.20587C14.1146 4.16253 14.1869 4.17351 14.2155 4.22776C14.3978 4.57455 14.5014 4.96913 14.5014 5.38669V10.6119C14.5014 11.9931 13.3778 13.115 11.9983 13.115H3.78626C2.40678 13.115 1.2832 11.9931 1.2832 10.6119V5.38669Z" fill="#474747"/>
</svg>
