<svg width="52" height="56" viewBox="0 0 52 56" fill="none" xmlns="http://www.w3.org/2000/svg">
<path d="M9.08105 25.0328L19.4586 13.931C19.855 13.507 20.5279 13.5084 20.9225 13.9341L25.5017 18.8737C25.9039 19.3075 26.5926 19.2993 26.9844 18.8561L39.3841 4.82568M39.3841 4.82568H30.2932M39.3841 4.82568V15.5236" stroke="#B6CBE6" stroke-width="2"/>
<path d="M50.9998 38.1081C44.5351 32.4026 37.8685 35.7308 35.3432 38.1081M50.9998 38.1081C43.7271 43.3383 37.5318 40.2874 35.3432 38.1081M50.9998 38.1081V44.6457M35.3432 38.1081V44.6457M35.3432 44.6457V50.3087C35.3432 50.8663 35.5721 51.4072 36.0078 51.7551C41.0612 55.79 47.082 53.7305 50.1881 51.7477C50.7144 51.4117 50.9998 50.8168 50.9998 50.1924V44.6457M35.3432 44.6457C37.7001 46.4287 44.1311 48.9249 50.9998 44.6457M22.2119 28.5988V27.176C22.2119 26.5723 22.4781 25.9943 22.9793 25.6577C25.9308 23.6755 31.7898 21.616 37.1538 25.6453C37.6187 25.9946 37.8685 26.5558 37.8685 27.1374V27.4154C37.8685 28.1452 37.4754 28.8255 36.8017 29.1062C33.7637 30.3722 27.9094 31.5321 22.2119 28.5988ZM22.2119 28.5988V34.5421M22.2119 34.5421C23.222 35.3345 26.3533 36.9194 30.7978 36.9194M22.2119 34.5421V40.7825M22.2119 40.7825V46.4398C22.2119 46.8207 22.3144 47.1988 22.5531 47.4955C23.8235 49.0746 26.7719 51.123 30.7978 49.4003M22.2119 40.7825C23.3904 41.8721 26.7574 43.8136 30.7978 42.8627" stroke="#243C5D" stroke-width="2"/>
<path d="M1 0.0710449L1.49306 40.6861C1.4997 41.2336 1.94543 41.6739 2.49298 41.6739H19.1818" stroke="#B6CBE6" stroke-width="2"/>
</svg>
